{"title":"Demon Legacy 2014 DVDRIP Xvid -BHRG","uid":10205578,"size":837036284,"categoryP":"video","categoryS":"movies","magnet":"?xt=urn:btih:8acf3d349856b42af60a22d6aefd489e85966d4a&amp;dn=Demon+Legacy+2014+DVDRIP+Xvid+-BHRG&amp;tr=udp%3A%2F%2Ftracker.openbittorrent.com%3A80&amp;tr=udp%3A%2F%2Fopen.demonii.com%3A1337&amp;tr=udp%3A%2F%2Ftracker.coppersurfer.tk%3A6969&amp;tr=udp%3A%2F%2Fexodus.desync.com%3A6969","seeders":0,"leechers":0,"uploader":"xxxlavalxxx","files":-1,"time":1400845125,"description":" &lt;a href=&quot;\nhttp://www.imdb.com/title/tt1334558/&quot; rel=&quot;nofollow&quot; target=&quot;_NEW&quot;&gt;\nhttp://www.imdb.com/title/tt1334558/&lt;/a&gt;\n\n\nIn a remote mountain lodge, five sorority sisters accidentally unleash an unholy entity, and must battle evil and each other to stop it from devouring mankind.\n\nDirector: Rand Vossler\nWriter: Tracy Morse (based on an original screenplay by)\nStars: Matthew Currie Holmes, AnnaMaria Demara, Eileen Dietz \nGenres: Horror\nCountry: USA\nLanguage: English\n\n\nFormat: AVI\nFormat/Info: Audio Video Interleave\nFile size: 792 MiB\nDuration: 1h 33mn\nOverall bit rate: 1 185 Kbps\n\nVideo\nID: 0\nFormat: MPEG-4 Visual\nFormat profile: Advanced Simple@L5\nFormat settings, BVOP: 2\nFormat settings, QPel: No\nFormat settings, GMC: No warppoints\nFormat settings, Matrix: Default (H.263)\nCodec ID: XVID\nCodec ID/Hint: XviD\nDuration: 1h 33mn\nBit rate: 1 051 Kbps\nWidth: 640 pixels\nHeight: 352 pixels\nDisplay aspect ratio: 16:9\nFrame rate: 25.000 fps\nColor space: YUV\nChroma subsampling: 4:2:0\nBit depth: 8 bits\nScan type: Progressive\nCompression mode: Lossy\nBits/(Pixel*Frame): 0.187\nStream size: 702 MiB (89%)\nWriting library: XviD 1.2.1 (UTC 2008-12-04)\n\nAudio\nID: 1\nFormat: MPEG Audio\nFormat version: Version 1\nFormat profile: Layer 3\nMode: Joint stereo\nMode extension: MS Stereo\nCodec ID: 55\nCodec ID/Hint: MP3\nDuration: 1h 33mn\nBit rate mode: Constant\nBit rate: 128 Kbps\nChannel(s): 2 channels\nSampling rate: 48.0 KHz\nCompression mode: Lossy\nStream size: 85.5 MiB (11%)\nAlignment: Aligned on interleaves\nInterleave, duration: 160 ms (4.00 video frames)\nInterleave, preload duration: 216 ms\nTitle: VTS_02_1 T80 3_2ch 384Kbps DELAY 0ms\nWriting library: LAME3.99r\nEncoding settings: -m j -V 4 -q 2 -lowpass 17 -b 128\n\n\nscreens\n &lt;a href=&quot;\nhttp://i.imgur.com/8VOLHLc.png&quot; rel=&quot;nofollow&quot; target=&quot;_NEW&quot;&gt;\nhttp://i.imgur.com/8VOLHLc.png&lt;/a&gt; &lt;a href=&quot;\nhttp://i.imgur.com/6xY1z8W.png&quot; rel=&quot;nofollow&quot; target=&quot;_NEW&quot;&gt;\nhttp://i.imgur.com/6xY1z8W.png&lt;/a&gt; &lt;a href=&quot;\nhttp://i.imgur.com/qs1v88P.png&quot; rel=&quot;nofollow&quot; target=&quot;_NEW&quot;&gt;\nhttp://i.imgur.com/qs1v88P.png&lt;/a&gt; &lt;a href=&quot;\nhttp://i.imgur.com/0Za7jEj.png&quot; rel=&quot;nofollow&quot; target=&quot;_NEW&quot;&gt;\nhttp://i.imgur.com/0Za7jEj.png&lt;/a&gt; &lt;a href=&quot;\nhttp://i.imgur.com/tI5ZGI3.png&quot; rel=&quot;nofollow&quot; target=&quot;_NEW&quot;&gt;\nhttp://i.imgur.com/tI5ZGI3.png&lt;/a&gt;","torrent":{"xt":"urn:btih:8acf3d349856b42af60a22d6aefd489e85966d4a","amp;dn":"Demon+Legacy+2014+DVDRIP+Xvid+-BHRG","amp;tr":["udp%3A%2F%2Ftracker.openbittorrent.com%3A80","udp%3A%2F%2Fopen.demonii.com%3A1337","udp%3A%2F%2Ftracker.coppersurfer.tk%3A6969","udp%3A%2F%2Fexodus.desync.com%3A6969"],"infoHash":"8acf3d349856b42af60a22d6aefd489e85966d4a","infoHashBuffer":{"type":"Buffer","data":[138,207,61,52,152,86,180,42,246,10,34,214,174,253,72,158,133,150,109,74]},"announce":[],"urlList":[]}}